<?xml version="1.0" encoding="UTF-8" standalone="no"?>
<!-- Created with Inkscape (http://www.inkscape.org/) -->

<svg
   width="195mm"
   height="148mm"
   viewBox="0 0 195 148"
   version="1.1"
   id="svg1"
   xml:space="preserve"
   inkscape:version="1.4.2 (f4327f4, 2025-05-13)"
   sodipodi:docname="dibujo.svg"
   xmlns:inkscape="http://www.inkscape.org/namespaces/inkscape"
   xmlns:sodipodi="http://sodipodi.sourceforge.net/DTD/sodipodi-0.dtd"
   xmlns="http://www.w3.org/2000/svg"
   xmlns:svg="http://www.w3.org/2000/svg"><sodipodi:namedview
     id="namedview1"
     pagecolor="#ffffff"
     bordercolor="#000000"
     borderopacity="0.25"
     inkscape:showpageshadow="2"
     inkscape:pageopacity="0.0"
     inkscape:pagecheckerboard="0"
     inkscape:deskcolor="#d1d1d1"
     inkscape:document-units="mm"
     inkscape:zoom="2.1612093"
     inkscape:cx="458.07687"
     inkscape:cy="315.33271"
     inkscape:window-width="2560"
     inkscape:window-height="1494"
     inkscape:window-x="-11"
     inkscape:window-y="-11"
     inkscape:window-maximized="1"
     inkscape:current-layer="layer1" /><defs
     id="defs1" /><g
     inkscape:label="Capa 1"
     inkscape:groupmode="layer"
     id="layer1"><path
       style="fill:#000000"
       d="m 21.121504,147.01229 c -2.708487,-0.65967 -4.776664,-1.34926 -5.849367,-1.95033 -0.580828,-0.32546 -0.723763,-0.35235 -0.944303,-0.17769 -0.187966,0.14886 -0.226852,0.1521 -0.140531,0.0117 0.06707,-0.10908 0.04151,-0.1941 -0.05833,-0.1941 -0.09772,0 -0.133481,-0.0699 -0.07946,-0.15529 0.05402,-0.0854 0.0388,-0.15528 -0.03383,-0.15528 -0.171451,0 -2.48391,-1.47565 -3.393097,-2.16523 -4.1723224,-3.16456 -7.1683532,-7.32454 -8.5619552,-11.88825 -1.11416463,-3.64862 -1.0192241,0.50144 -1.08171343,-47.284039 -0.053678,-41.04729 -0.030734,-44.01376 0.35392653,-45.76117 0.287471,-1.30589 0.8502779,-3.1311 1.1878859,-3.85235 0.07996,-0.17082 0.292706,-0.62502 0.472781,-1.00935 0.632878,-1.35074 1.9233969,-3.37524 2.9201008,-4.58091 1.513312,-1.83058 4.8498184,-4.89147 5.3319204,-4.89147 0.07288,0 0.261955,-0.13976 0.420159,-0.31057 0.158204,-0.17082 0.353067,-0.31057 0.43303,-0.31057 0.07996,0 0.444331,-0.196 0.809706,-0.43556 1.428898,-0.93686 4.150446,-1.94161 7.100628,-2.62144 1.110179,-0.25582 2.924591,-0.27711 26.460385,-0.31043 26.010051,-0.0368 27.537582,-0.0595 28.383458,-0.42132 0.139921,-0.0599 0.318707,-0.0916 0.397303,-0.0706 0.0786,0.021 0.57199,-0.0882 1.09643,-0.24279 0.52444,-0.15454 1.025042,-0.29727 1.112449,-0.31717 0.08741,-0.0199 0.360241,-0.11681 0.6063,-0.21534 0.246058,-0.0985 0.50748,-0.17915 0.580936,-0.17915 0.07346,0 0.408496,-0.13567 0.744531,-0.30149 0.336035,-0.16582 1.147331,-0.56061 1.802882,-0.87731 0.65555,-0.3167 1.387806,-0.67492 1.627236,-0.79604 0.969468,-0.49045 3.327322,-2.32523 5.203691,-4.04931 3.207006,-2.9467097 5.042484,-4.5379197 6.037484,-5.2339997 0.7219,-0.50504 2.09469,-1.39241 2.90424,-1.8773 0.41502,-0.24859 0.76036,-0.55679 0.76742,-0.6849 0.008,-0.15397 0.0396,-0.16838 0.0917,-0.0425 0.0558,0.13479 0.36352,0.05 1.053083,-0.29009 1.279137,-0.63093 3.780677,-1.57163 3.891467,-1.46338 0.0479,0.0468 0.16523,0.0228 0.26068,-0.0534 0.0954,-0.0762 1.06747,-0.33728 2.16006,-0.58017 l 1.98651,-0.44161 21.69275,-0.0509 c 15.52113,-0.0364 22.07706,-9e-4 23.04358,0.12489 3.09568,0.4029 5.91695,1.23604 8.24052,2.4335 1.63154,0.84082 2.37465,1.32896 4.2348,2.78182 1.81954,1.42114 2.65353,2.26808 4.04113,4.1038497 0.9947,1.31597 1.42066,2.10881 2.87824,5.35733 0.15873,0.35376 0.47639,1.52892 0.54284,2.00821 0.0245,0.17659 0.0974,0.44335 0.16199,0.59281 0.0646,0.14946 0.0772,0.37433 0.028,0.4997 -0.0492,0.12538 -0.0163,0.27219 0.0733,0.32626 0.0895,0.0541 0.14216,0.33206 0.11697,0.61778 -0.0252,0.28572 0.006,0.56982 0.0687,0.63134 0.17404,0.17006 0.13834,77.30458 -0.0363,78.40131 -0.0816,0.51244 -0.18017,1.141337 -0.21906,1.397559 -0.0932,0.61417 -0.56245,2.2658 -0.72937,2.5673 -0.0725,0.13092 -0.18516,0.47558 -0.25043,0.76592 -0.0653,0.29035 -0.25192,0.75973 -0.41479,1.04308 -0.16288,0.28335 -0.25539,0.51518 -0.20559,0.51518 0.16621,0 -1.21274,2.36562 -2.0743,3.55852 -0.93467,1.29412 -1.85767,2.26802 -3.42706,3.61601 -0.98723,0.84797 -2.82392,2.14141 -3.04191,2.14219 -0.0572,2e-4 -0.522,0.22994 -1.03299,0.51052 -1.00321,0.55088 -2.22846,1.04212 -2.60305,1.04366 -0.12818,5.2e-4 -0.42558,0.0991 -0.66088,0.21904 -0.2353,0.11995 -0.70014,0.27287 -1.03299,0.33981 -0.9865,0.19843 -38.89018,0.25686 -40.0971,0.0618 -1.47197,-0.23788 -3.70774,-0.78324 -3.88562,-0.94781 -0.083,-0.0768 -0.26871,-0.13968 -0.41262,-0.13968 -0.41696,0 -2.68455,-1.13707 -3.80944,-1.91022 -4.27516,-2.93839 -6.38898,-5.99132 -7.60135,-10.97842 -0.11638,-0.47872 -0.17228,-7.929469 -0.17751,-23.658579 -0.004,-12.62789 -0.0593,-23.03974 -0.12237,-23.13744 -0.0631,-0.0977 -0.0913,-0.59692 -0.0627,-1.10936 0.0585,-1.04938 -0.12175,-1.0896 -0.2376,-0.053 -0.10035,0.89786 -0.481187,1.86773 -1.57572,4.01277 -0.97884,1.91831 -1.81982,3.83794 -1.8207,4.15598 -3e-4,0.10791 -0.0669,0.31755 -0.14808,0.46585 -0.1814,0.33152 -0.89841,3.37403 -1.06992,4.53998 -0.0691,0.46973 -0.12737,8.29609 -0.1295,17.3919 -0.004,18.191159 -0.0167,17.925239 0.97074,20.808179 2.13774,6.24151 6.08161,10.61365 12.65524,14.02946 0.76433,0.39716 1.44298,0.70924 1.50813,0.69351 0.0651,-0.0157 0.4045,0.0937 0.75412,0.24324 0.34963,0.14952 0.83384,0.31128 1.07603,0.35948 0.24219,0.0482 0.47955,0.14962 0.52748,0.22538 0.0479,0.0758 0.13967,0.10603 0.20389,0.0673 0.0642,-0.0388 0.43474,-5.2e-4 0.82336,0.085 3.22959,0.71091 2.24582,0.68231 21.68419,0.63035 20.68745,-0.0553 18.88802,0.0444 23.67927,-1.31163 2.4073,-0.68132 6.10971,-2.67767 8.25282,-4.44996 3.56562,-2.94868 5.77092,-5.66133 7.33237,-9.01926 0.21842,-0.46974 0.46323,-0.99383 0.54402,-1.16464 0.29766,-0.6294 1.25985,-3.91976 1.4985,-5.1244 0.81328,-4.105069 0.7922,-3.584449 0.84731,-20.924639 0.0284,-8.94635 0.0876,-16.26609 0.13147,-16.26609 0.17807,0 2.08879,1.00708 2.57754,1.35853 0.28835,0.20736 1.3686,0.92211 2.40055,1.58835 1.37553,0.88805 1.97784,1.19287 2.25685,1.14213 0.27422,-0.0499 0.44237,0.0309 0.60173,0.28898 0.21905,0.35477 0.218,0.35545 -0.10999,0.0705 -0.18214,-0.15822 -0.41971,-0.25884 -0.52794,-0.22359 -0.10823,0.0352 0.19333,0.30447 0.67013,0.59826 0.9372,0.57747 2.81416,2.44009 4.00809,3.97745 0.40951,0.52731 0.74457,0.99588 0.74457,1.04128 0,0.0454 0.18664,0.34769 0.41475,0.67175 0.50179,0.71285 1.81014,3.27448 1.81014,3.54407 0,0.10615 0.10684,0.39314 0.23741,0.63777 0.13057,0.24463 0.23784,0.55543 0.23838,0.69065 5.4e-4,0.13523 0.0505,0.29426 0.11102,0.3534 0.0605,0.0591 0.13095,0.2414 0.15651,0.40503 0.0256,0.16363 0.15977,0.59857 0.29825,0.96653 0.13848,0.36796 0.27562,0.88334 0.30476,1.14528 0.0291,0.26194 0.13132,0.75109 0.22707,1.08699 0.12247,0.4296 0.17149,6.85122 0.16525,21.651839 -0.01,22.78547 0.0282,21.66019 -0.83725,24.89658 -0.20074,0.75062 -0.20477,0.89108 -0.0236,0.82315 0.14208,-0.0533 0.18756,-0.003 0.13009,0.14311 -0.0486,0.12376 -0.17387,0.22502 -0.27836,0.22502 -0.10449,0 -0.32326,0.36686 -0.48615,0.81524 -0.42485,1.16947 -1.53012,3.34099 -2.41121,4.73732 -2.12607,3.36934 -5.26929,6.25109 -9.03347,8.28204 -2.15041,1.16025 -3.10813,1.47957 -6.67734,2.22632 -0.98017,0.20507 -10.11704,0.23108 -76.83841,0.21881 -73.406499,-0.0135 -75.762475,-0.0228 -76.917876,-0.30424 z m -7.78714,-2.37145 c 0,-0.0336 0.110986,-0.10265 0.246636,-0.15351 0.141428,-0.053 0.205218,-0.027 0.149542,0.061 -0.09333,0.14755 -0.396178,0.21825 -0.396178,0.0925 z m -0.360222,-0.26881 c 0.107802,-0.10613 0.236037,-0.15384 0.284966,-0.10603 0.04893,0.0478 -0.03927,0.13464 -0.196002,0.19296 -0.226495,0.0843 -0.244749,0.0664 -0.08896,-0.0869 z"
       id="path3" /></g></svg>
