<?xml version="1.0" encoding="UTF-8"?>
<svg version="1.1" xmlns="http://www.w3.org/2000/svg" width="1362" height="1047">
<path d="M0 0 C449.46 0 898.92 0 1362 0 C1362 345.51 1362 691.02 1362 1047 C912.54 1047 463.08 1047 0 1047 C0 701.49 0 355.98 0 0 Z M84 285 C85 289 85 289 85 289 Z M82 300 C82.33 300.99 82.66 301.98 83 303 C83.33 302.01 83.66 301.02 84 300 C83.34 300 82.68 300 82 300 Z M81 305 C78.63019987 307.95377498 78.63019987 307.95377498 79 312 C79.99 311.67 80.98 311.34 82 311 C82 309.02 82 307.04 82 305 C81.67 305 81.34 305 81 305 Z M81 315 C81 316.32 81 317.64 81 319 C81.66 319 82.32 319 83 319 C82.67 317.68 82.34 316.36 82 315 C81.67 315 81.34 315 81 315 Z M81 391 C80.67704121 394.47827089 80.3689623 397.95774007 80.0625 401.4375 C79.97548828 402.37271484 79.88847656 403.30792969 79.79882812 404.27148438 C77.73070506 428.09319825 77.8522398 452.00041167 77.86927533 475.88907945 C77.87156872 480.66143134 77.86803055 485.43377981 77.86529541 490.20613098 C77.86088062 499.51930933 77.86179484 508.83247956 77.86470805 518.14565822 C77.86697868 525.72210424 77.86726746 533.29854801 77.86618423 540.87499428 C77.866031 541.95874745 77.86587777 543.04250063 77.86571989 544.15909481 C77.86540013 546.36158837 77.86507591 548.56408193 77.8647473 550.76657549 C77.86190519 571.35196392 77.86515977 591.93734788 77.87054767 612.52273557 C77.87501645 630.14137999 77.87423669 647.76001781 77.86962891 665.37866211 C77.86426396 685.90171823 77.86217777 706.42477044 77.86524117 726.94782716 C77.86555968 729.14070245 77.86587405 731.33357773 77.86618423 733.52645302 C77.86633851 734.6050421 77.86649279 735.68363119 77.86665174 736.79490479 C77.86751099 744.35356306 77.86606685 751.91221882 77.86370468 759.47087669 C77.86088518 768.69448674 77.86169006 777.91808828 77.86698543 787.14169737 C77.86959331 791.83714417 77.87067755 796.53257687 77.86733627 801.22802353 C77.82954837 859.489858 82.71596077 907.75175881 124.5 951.625 C125.325 952.40875 126.15 953.1925 127 954 C127.84304687 954.81791016 127.84304687 954.81791016 128.703125 955.65234375 C158.05576253 983.04440435 195.89601195 997.1715425 235.74636745 997.13701439 C237.35550254 997.13927309 238.96463707 997.14196531 240.57377079 997.14505023 C244.99981565 997.15226454 249.42584352 997.15327952 253.85189347 997.153273 C258.66583103 997.15434457 263.47976113 997.16113799 268.29369456 997.1671797 C277.84373289 997.17824272 287.39376756 997.18390081 296.94381117 997.18788858 C308.38256892 997.19290207 319.82131955 997.20363032 331.26007309 997.21437032 C358.91012514 997.23998946 386.56017994 997.25503444 414.21024044 997.26788078 C423.370278 997.27213668 432.53031537 997.27670244 441.69035268 997.2814641 C489.71046416 997.30636247 537.73057587 997.32843143 585.75069235 997.34065448 C589.26495435 997.34155184 592.77921635 997.34246654 596.29347834 997.34338222 C596.99057873 997.34356383 597.68767911 997.34374544 598.40590375 997.34393256 C605.46821184 997.34577517 612.53051994 997.34764104 619.59282802 997.34953065 C621.00881384 997.3499087 622.42479965 997.35028499 623.84078547 997.35065953 C669.28952811 997.36268222 714.7382324 997.3923582 760.18695698 997.43407464 C792.84807605 997.46404465 825.50918721 997.49166315 858.17031956 997.50135231 C859.17893983 997.50165314 859.17893983 997.50165314 860.20793627 997.50196006 C874.30977231 997.50611628 888.41160834 997.50908875 902.51344491 997.51066696 C909.11835928 997.51140737 915.72327361 997.51231805 922.32818794 997.51332474 C923.62804419 997.51351535 924.92790044 997.51370597 926.26714628 997.51390236 C947.16139826 997.51741191 968.05560159 997.53769128 988.94983573 997.56412137 C1009.96541327 997.59030342 1030.98093477 997.5979776 1051.99652629 997.58702008 C1064.47094467 997.58105644 1076.94517255 997.58888567 1089.41956199 997.61685092 C1097.76751898 997.63417515 1106.1153469 997.63309309 1114.46330683 997.61748323 C1119.20990377 997.60911834 1123.95613868 997.60832105 1128.7027012 997.63009469 C1167.82708906 997.79845995 1202.21034792 992.39432106 1234 968 C1234.80824219 967.41863281 1235.61648438 966.83726562 1236.44921875 966.23828125 C1237.18785156 965.70589844 1237.92648437 965.17351563 1238.6875 964.625 C1239.33074219 964.16351562 1239.97398438 963.70203125 1240.63671875 963.2265625 C1241.08660156 962.82179688 1241.53648438 962.41703125 1242 962 C1242 961.34 1242 960.68 1242 960 C1242.54398438 959.77828125 1243.08796875 959.5565625 1243.6484375 959.328125 C1254.03054302 953.46447736 1261.60532262 941.75202094 1268 932 C1268.69867187 930.93910156 1269.39734375 929.87820313 1270.1171875 928.78515625 C1285.26075337 904.95024421 1295.20644736 877.53123733 1295.1328125 849.03125 C1295.13424759 847.77338684 1295.13424759 847.77338684 1295.13571167 846.4901123 C1295.13638856 844.72192306 1295.13456876 842.95373127 1295.13037109 841.18554688 C1295.12507019 838.5350965 1295.13030479 835.88481981 1295.13671875 833.234375 C1295.39234192 814.99736498 1295.39234192 814.99736498 1293 797 C1290.36608673 798.941158 1289.98155211 800.08474189 1289.26953125 803.35546875 C1289.04330078 805.25232422 1289.04330078 805.25232422 1288.8125 807.1875 C1288.65394531 808.45980469 1288.49539063 809.73210937 1288.33203125 811.04296875 C1288.22246094 812.01878906 1288.11289063 812.99460937 1288 814 C1287.34 811.69 1286.68 809.38 1286 807 C1285.34 807 1284.68 807 1284 807 C1284.020625 806.05125 1284.04125 805.1025 1284.0625 804.125 C1284.22551826 801.09333717 1284.22551826 801.09333717 1283 799 C1281.02 799 1279.04 799 1277 799 C1276.51171875 796.98177083 1276.0234375 794.96354167 1275.53515625 792.9453125 C1275.05153008 790.9414343 1275.05153008 790.9414343 1274 789 C1273.01 789 1272.02 789 1271 789 C1271 787.68 1271 786.36 1271 785 C1266.05 784.67 1261.1 784.34 1256 784 C1255.67 783.01 1255.34 782.02 1255 781 C1250.05 780.67 1245.1 780.34 1240 780 C1239.34 778.35 1238.68 776.7 1238 775 C1233.05 775 1228.1 775 1223 775 C1223 773.02 1223 771.04 1223 769 C1218.05 768.67 1213.1 768.34 1208 768 C1207.67 767.01 1207.34 766.02 1207 765 C1201.72 765 1196.44 765 1191 765 C1191 765.66 1191 766.32 1191 767 C1186.125 764.375 1186.125 764.375 1185 761 C1184.34 761 1183.68 761 1183 761 C1183 760.34 1183 759.68 1183 759 C1183.66 759 1184.32 759 1185 759 C1185 753.72 1185 748.44 1185 743 C1184.34 743 1183.68 743 1183 743 C1183 746.63 1183 750.26 1183 754 C1182.34 754 1181.68 754 1181 754 C1181 750.37 1181 746.74 1181 743 C1180.34 743 1179.68 743 1179 743 C1178.67 742.34 1178.34 741.68 1178 741 C1176.35 741.33 1174.7 741.66 1173 742 C1172.29925156 745.153368 1172 747.72724974 1172 751 C1172 752.66666667 1172 754.33333333 1172 756 C1170.02 756.33 1168.04 756.66 1166 757 C1165.938125 757.94875 1165.87625 758.8975 1165.8125 759.875 C1165.4103125 761.421875 1165.4103125 761.421875 1165 763 C1163.3523962 763.71247732 1161.68236471 764.37400383 1160 765 C1158.60699818 766.95890881 1157.27754554 768.9639118 1156 771 C1154.3563186 772.68933922 1152.6857124 774.35259924 1151 776 C1149.54950098 777.55044029 1148.11281246 779.1138746 1146.6875 780.6875 C1145.99011719 781.45449219 1145.29273438 782.22148438 1144.57421875 783.01171875 C1142.79308587 784.83866723 1142.79308587 784.83866723 1143 787 C1142.42507813 787.0825 1141.85015625 787.165 1141.2578125 787.25 C1138.32358432 788.22469171 1136.98145035 789.75739126 1134.875 792 C1131.16949153 795.91525424 1131.16949153 795.91525424 1129 797 C1129 797.66 1129 798.32 1129 799 C1127.02 799.495 1127.02 799.495 1125 800 C1125 800.66 1125 801.32 1125 802 C1124.46761719 802.24621094 1123.93523437 802.49242187 1123.38671875 802.74609375 C1120.99854846 804.00076259 1118.77853739 805.42585044 1116.53393555 806.91918945 C1108.00915085 812.58101993 1099.12449468 817.38299574 1090 822 C1089.19304688 822.42152344 1088.38609375 822.84304688 1087.5546875 823.27734375 C1080.55006759 826.69724641 1072.81277297 828.40362302 1065.30419922 830.37744141 C1063.56071927 830.84850242 1061.83005479 831.36733722 1060.10699463 831.90834045 C1040.75727342 837.40581156 1020.28936256 837.6035452 1000.34345102 837.57457328 C996.74215463 837.57396111 993.14099358 837.59696654 989.5397644 837.61714172 C982.70476422 837.6521992 975.86986873 837.66848897 969.03478897 837.6769169 C960.70282423 837.68780291 952.37096375 837.71866659 944.0390625 837.75195312 C943.29774629 837.75489765 942.55643008 837.75784218 941.79264975 837.76087594 C938.06961791 837.77572365 934.34658754 837.7908853 930.62355804 837.80630875 C927.68000286 837.81841069 924.73644633 837.82963247 921.79288483 837.84008408 C901.58546195 837.91238048 881.38426162 838.09343059 861.1796875 838.45703125 C860.03452793 838.4761878 858.88936836 838.49534435 857.70950699 838.51508141 C854.54822302 838.56926419 851.38716971 838.63042964 848.22607422 838.69458008 C846.8291717 838.7181618 846.8291717 838.7181618 845.40404892 838.74221992 C841.37932494 838.43653005 841.37932494 838.43653005 838 840 C827.52704195 840.62460083 817.34353553 839.52230746 807 838 C807 838.66 807 839.32 807 840 C804.36 840.33 801.72 840.66 799 841 C799.66 841.33 800.32 841.66 801 842 C801 842.66 801 843.32 801 844 C799.68 844 798.36 844 797 844 C797 844.99 797 845.98 797 847 C798.32 847 799.64 847 801 847 C801 847.99 801 848.98 801 850 C799.68 850 798.36 850 797 850 C797 850.66 797 851.32 797 852 C795.35 852 793.7 852 792 852 C791.67 849.36 791.34 846.72 791 844 C789.02 844.33 787.04 844.66 785 845 C785 845.66 785 846.32 785 847 C785.66 847 786.32 847 787 847 C787 847.66 787 848.32 787 849 C786.30132813 849.06058594 785.60265625 849.12117188 784.8828125 849.18359375 C783.97273437 849.26738281 783.06265625 849.35117187 782.125 849.4375 C781.22007812 849.51871094 780.31515625 849.59992188 779.3828125 849.68359375 C776.98889139 849.86989285 776.98889139 849.86989285 775 851 C775 852.32 775 853.64 775 855 C759.49 855 743.98 855 728 855 C727.34 856.65 726.68 858.3 726 860 C723.69 860.33 721.38 860.66 719 861 C719 861.66 719 862.32 719 863 C713.72 863 708.44 863 703 863 C703 862.34 703 861.68 703 861 C700.36 861 697.72 861 695 861 C694.67 861.99 694.34 862.98 694 864 C689.05 864.33 684.1 864.66 679 865 C679 866.98 679 868.96 679 871 C668.44 871 657.88 871 647 871 C647 869.02 647 867.04 647 865 C631.49 865 615.98 865 600 865 C599.34 861.7 598.68 858.4 598 855 C593.05 855 588.1 855 583 855 C583 853.02 583 851.04 583 849 C580.36 849 577.72 849 575 849 C575 850.98 575 852.96 575 855 C572.36 855 569.72 855 567 855 C567 853.02 567 851.04 567 849 C564.36 849 561.72 849 559 849 C559 848.34 559 847.68 559 847 C561.64 847 564.28 847 567 847 C567 846.34 567 845.68 567 845 C562.05 845 557.1 845 552 845 C551.67 841.04 551.34 837.08 551 833 C545.72 833 540.44 833 535 833 C535 832.34 535 831.68 535 831 C533.02 831 531.04 831 529 831 C529 830.34 529 829.68 529 829 C528.34 829 527.68 829 527 829 C527 828.34 527 827.68 527 827 C526.34 827 525.68 827 525 827 C525 826.34 525 825.68 525 825 C524.34 825 523.68 825 523 825 C523 824.34 523 823.68 523 823 C522.01 823 521.02 823 520 823 C518.23537317 826.08809695 518 827.23312136 518 831 C514.125 828.375 514.125 828.375 513 825 C512.34 825 511.68 825 511 825 C511 825.66 511 826.32 511 827 C510.34 827 509.68 827 509 827 C509.33 826.01 509.66 825.02 510 824 C512.97 823.67 515.94 823.34 519 823 C519 821.02 519 819.04 519 817 C514.05 816.67 509.1 816.34 504 816 C503.67 815.01 503.34 814.02 503 813 C498.05 812.67 493.1 812.34 488 812 C488.06510417 809.55859375 488.13020833 807.1171875 488.1953125 804.67578125 C488.10072822 801.52002235 488.10072822 801.52002235 486 797 C476.1 796.67 466.2 796.34 456 796 C455.67 795.01 455.34 794.02 455 793 C458.96 792.34 462.92 791.68 467 791 C467 790.34 467 789.68 467 789 C466.34 789 465.68 789 465 789 C465 787.68 465 786.36 465 785 C464.34 785 463.68 785 463 785 C463 784.34 463 783.68 463 783 C462.34 783 461.68 783 461 783 C461 782.34 461 781.68 461 781 C459.68 781 458.36 781 457 781 C457 780.34 457 779.68 457 779 C456.34 779 455.68 779 455 779 C455 779.66 455 780.32 455 781 C450.05 781 445.1 781 440 781 C440 779.35 440 777.7 440 776 C443.63 775.67 447.26 775.34 451 775 C451 774.34 451 773.68 451 773 C450.34 773 449.68 773 449 773 C449 771.68 449 770.36 449 769 C448.34 769 447.68 769 447 769 C447 768.34 447 767.68 447 767 C446.34 767 445.68 767 445 767 C445 766.34 445 765.68 445 765 C443.68 765 442.36 765 441 765 C441 764.34 441 763.68 441 763 C440.34 763 439.68 763 439 763 C438.67 766.63 438.34 770.26 438 774 C436.35 774 434.7 774 433 774 C433 769.38 433 764.76 433 760 C434.65 760 436.3 760 438 760 C439.28322547 758.9404123 439.28322547 758.9404123 439.125 756.5 C439.28322547 754.0595877 439.28322547 754.0595877 438 753 C435.46950598 752.92686433 432.96695163 752.90752473 430.4375 752.9375 C429.72658203 752.94201172 429.01566406 752.94652344 428.28320312 752.95117188 C426.52209987 752.96299136 424.76103964 752.98092737 423 753 C423 753.66 423 754.32 423 755 C422.34 755 421.68 755 421 755 C421 754.34 421 753.68 421 753 C420.34 753 419.68 753 419 753 C419 752.34 419 751.68 419 751 C417.68 751 416.36 751 415 751 C415 749.68 415 748.36 415 747 C414.34 747 413.68 747 413 747 C413 746.34 413 745.68 413 745 C412.34 745 411.68 745 411 745 C411 744.34 411 743.68 411 743 C410.34 743 409.68 743 409 743 C409 737.72 409 732.44 409 727 C408.67 727 408.34 727 408 727 C407.34 732.61 406.68 738.22 406 744 C405.34 743.67 404.68 743.34 404 743 C403.375 740.9375 403.375 740.9375 403 739 C402.34 739 401.68 739 401 739 C401 738.34 401 737.68 401 737 C400.34 737 399.68 737 399 737 C399 736.34 399 735.68 399 735 C398.34 735 397.68 735 397 735 C397 734.34 397 733.68 397 733 C396.34 733 395.68 733 395 733 C395 732.34 395 731.68 395 731 C393.68 731 392.36 731 391 731 C391 730.34 391 729.68 391 729 C390.34 729 389.68 729 389 729 C389 728.34 389 727.68 389 727 C390.0828125 727.309375 390.0828125 727.309375 391.1875 727.625 C394.44641585 728.05952211 396.08304504 727.41680669 399 726 C399 725.01 399 724.02 399 723 C398.34 723 397.68 723 397 723 C397 722.34 397 721.68 397 721 C396.34 721 395.68 721 395 721 C395 720.34 395 719.68 395 719 C393.68 719.33 392.36 719.66 391 720 C391 721.32 391 722.64 391 724 C388.36 723.34 385.72 722.68 383 722 C383 721.01 383 720.02 383 719 C382.34 719 381.68 719 381 719 C381 718.34 381 717.68 381 717 C380.34 717 379.68 717 379 717 C379 716.34 379 715.68 379 715 C377.68 715 376.36 715 375 715 C375 714.01 375 713.02 375 712 C384.405 711.505 384.405 711.505 394 711 C394.33 709.68 394.66 708.36 395 707 C393.68 707 392.36 707 391 707 C391 706.34 391 705.68 391 705 C384.4 705 377.8 705 371 705 C371 704.34 371 703.68 371 703 C370.34 703 369.68 703 369 703 C369 702.34 369 701.68 369 701 C368.34 701 367.68 701 367 701 C367 700.34 367 699.68 367 699 C366.34 699 365.68 699 365 699 C365.33 698.01 365.66 697.02 366 696 C368.5625 694.8125 368.5625 694.8125 371 694 C371 693.01 371 692.02 371 691 C370.34 691 369.68 691 369 691 C369 690.34 369 689.68 369 689 C368.34 689 367.68 689 367 689 C367 688.34 367 687.68 367 687 C366.34 687 365.68 687 365 687 C365 686.34 365 685.68 365 685 C364.34 685 363.68 685 363 685 C363 684.34 363 683.68 363 683 C361.68 683.33 360.36 683.66 359 684 C358.896875 684.639375 358.79375 685.27875 358.6875 685.9375 C358.460625 686.618125 358.23375 687.29875 358 688 C357.01 688.33 356.02 688.66 355 689 C355 688.34 355 687.68 355 687 C354.34 687 353.68 687 353 687 C353 686.34 353 685.68 353 685 C352.34 685 351.68 685 351 685 C351 684.34 351 683.68 351 683 C350.34 683 349.68 683 349 683 C349.33 682.01 349.66 681.02 350 680 C354.29 679.67 358.58 679.34 363 679 C363 677.68 363 676.36 363 675 C361.68 675 360.36 675 359 675 C359 674.34 359 673.68 359 673 C352.4 673 345.8 673 339 673 C339 672.34 339 671.68 339 671 C338.34 671 337.68 671 337 671 C337 670.34 337 669.68 337 669 C336.34 669 335.68 669 335 669 C335 668.34 335 667.68 335 667 C334.34 667 333.68 667 333 667 C333.33 666.236875 333.66 665.47375 334 664.6875 C335.17436686 662.00930865 335.17436686 662.00930865 335 659 C334.34 659 333.68 659 333 659 C333 658.34 333 657.68 333 657 C332.34 657 331.68 657 331 657 C331 656.34 331 655.68 331 655 C328.23723823 655.52268466 325.6739124 656.10869587 323 657 C323 656.34 323 655.68 323 655 C321.02 655 319.04 655 317 655 C317 654.34 317 653.68 317 653 C316.34 653 315.68 653 315 653 C315 652.34 315 651.68 315 651 C313.68 651 312.36 651 311 651 C311 650.34 311 649.68 311 649 C310.34 649 309.68 649 309 649 C309 648.34 309 647.68 309 647 C307.68 647 306.36 647 305 647 C305 642.05 305 637.1 305 632 C300.43328912 629.81430466 300.43328912 629.81430466 297 630 C297 625.05 297 620.1 297 615 C297.66 615 298.32 615 299 615 C299 613.68 299 612.36 299 611 C297.68 611 296.36 611 295 611 C295 610.34 295 609.68 295 609 C288.4 609 281.8 609 275 609 C275 608.34 275 607.68 275 607 C274.34 607 273.68 607 273 607 C273 606.34 273 605.68 273 605 C271.68 604.67 270.36 604.34 269 604 C269 603.34 269 602.68 269 602 C269.66 601.67 270.32 601.34 271 601 C271 600.34 271 599.68 271 599 C272.32 598.67 273.64 598.34 275 598 C275 597.01 275 596.02 275 595 C274.34 595 273.68 595 273 595 C273 594.34 273 593.68 273 593 C272.34 593 271.68 593 271 593 C271 592.34 271 591.68 271 591 C270.34 591 269.68 591 269 591 C269 590.34 269 589.68 269 589 C268.34 589 267.68 589 267 589 C267 588.34 267 587.68 267 587 C265.68 587 264.36 587 263 587 C263 587.66 263 588.32 263 589 C261.68 589 260.36 589 259 589 C259 588.34 259 587.68 259 587 C258.34 587 257.68 587 257 587 C257 585.68 257 584.36 257 583 C256.01 582.67 255.02 582.34 254 582 C253.67 577.05 253.34 572.1 253 567 C253.66 567 254.32 567 255 567 C255 565.68 255 564.36 255 563 C254.34 563 253.68 563 253 563 C253 562.34 253 561.68 253 561 C252.34 561 251.68 561 251 561 C251 560.34 251 559.68 251 559 C249.68 559 248.36 559 247 559 C246.67 562.3 246.34 565.6 246 569 C245.01 569 244.02 569 243 569 C243 568.34 243 567.68 243 567 C242.34 567 241.68 567 241 567 C241 561.72 241 556.44 241 551 C240.34 551 239.68 551 239 551 C239 549.68 239 548.36 239 547 C238.34 547 237.68 547 237 547 C237 546.34 237 545.68 237 545 C236.34 545 235.68 545 235 545 C235 544.34 235 543.68 235 543 C233.68 543 232.36 543 231 543 C231 542.34 231 541.68 231 541 C226.05 541 221.1 541 216 541 C216 539.02 216 537.04 216 535 C212.37 534.67 208.74 534.34 205 534 C205 523.77 205 513.54 205 503 C197.74 503 190.48 503 183 503 C183 497.72 183 492.44 183 487 C178.05 486.67 173.1 486.34 168 486 C167.67 484.35 167.34 482.7 167 481 C164.36 481 161.72 481 159 481 C159 480.34 159 479.68 159 479 C156.36 479 153.72 479 151 479 C151.00785522 477.9627478 151.00785522 477.9627478 151.01586914 476.90454102 C151.036575 473.79053648 151.04963963 470.67654639 151.0625 467.5625 C151.07506836 465.92958008 151.07506836 465.92958008 151.08789062 464.26367188 C151.09272461 462.71196289 151.09272461 462.71196289 151.09765625 461.12890625 C151.10551147 459.69140015 151.10551147 459.69140015 151.11352539 458.22485352 C151.2505313 456.02714661 151.2505313 456.02714661 150 455 C148.14825294 454.84213692 146.2909089 454.74892644 144.43359375 454.68359375 C142.7465332 454.62075195 142.7465332 454.62075195 141.02539062 454.55664062 C139.24938477 454.49766602 139.24938477 454.49766602 137.4375 454.4375 C136.24962891 454.39431641 135.06175781 454.35113281 133.83789062 454.30664062 C130.89207803 454.20016547 127.94605498 454.09954319 125 454 C125 449.05 125 444.1 125 439 C123.02 439 121.04 439 119 439 C118.67 440.98 118.34 442.96 118 445 C117.01 445 116.02 445 115 445 C115 444.34 115 443.68 115 443 C114.34 443 113.68 443 113 443 C113 436.4 113 429.8 113 423 C112.01 422.67 111.02 422.34 110 422 C109.67 417.05 109.34 412.1 109 407 C107.02 407 105.04 407 103 407 C103 411.95 103 416.9 103 422 C100.916875 421.979375 98.83375 421.95875 96.6875 421.9375 C91.75453095 421.88053613 91.75453095 421.88053613 87 423 C87.33 418.05 87.66 413.1 88 408 C86.68 407.67 85.36 407.34 84 407 C84 401.72 84 396.44 84 391 C83.01 391 82.02 391 81 391 Z M78 407 C78 409.64 78 412.28 78 415 C78.33 415 78.66 415 79 415 C79 412.36 79 409.72 79 407 C78.67 407 78.34 407 78 407 Z M119 408 C119 412.62 119 417.24 119 422 C119.99 422.495 119.99 422.495 121 423 C121 418.05 121 413.1 121 408 C120.34 408 119.68 408 119 408 Z M263 575 C263 577.31 263 579.62 263 582 C263.99 582.495 263.99 582.495 265 583 C265 580.36 265 577.72 265 575 C264.34 575 263.68 575 263 575 Z M311 645 C311 645.66 311 646.32 311 647 C318.92 646.505 318.92 646.505 327 646 C327 645.67 327 645.34 327 645 C321.72 645 316.44 645 311 645 Z M1176 738 C1176.33 738.66 1176.66 739.32 1177 740 C1177.33 739.34 1177.66 738.68 1178 738 C1177.34 738 1176.68 738 1176 738 Z M1169 752 C1169 752.99 1169 753.98 1169 755 C1169.66 754.01 1170.32 753.02 1171 752 C1170.34 752 1169.68 752 1169 752 Z M455 771 C455 772.32 455 773.64 455 775 C456.32 775 457.64 775 459 775 C459 774.34 459 773.68 459 773 C458.34 773 457.68 773 457 773 C457 772.34 457 771.68 457 771 C456.34 771 455.68 771 455 771 Z M794 836 C793.01 836.33 792.02 836.66 791 837 C791 837.66 791 838.32 791 839 C792.98 838.67 794.96 838.34 797 838 C796.01 837.34 795.02 836.68 794 836 Z " fill="#000000" transform="translate(0,0)"/>
<path d="M0 0 C-0.33 1.65 -0.66 3.3 -1 5 C-1.99 5 -2.98 5 -4 5 C-4 4.34 -4 3.68 -4 3 C-4.66 3 -5.32 3 -6 3 C-6 2.01 -6 1.02 -6 0 C-3.50907189 -1.24546405 -2.58919267 -0.7767578 0 0 Z " fill="#000000" transform="translate(231,552)"/>
<path d="M0 0 C0.99 0 1.98 0 3 0 C3 1.65 3 3.3 3 5 C2.01 5.33 1.02 5.66 0 6 C0 4.02 0 2.04 0 0 Z " fill="#000000" transform="translate(1268,791)"/>
<path d="M0 0 C2.64 0 5.28 0 8 0 C8 0.99 8 1.98 8 3 C5.36 3 2.72 3 0 3 C0 2.01 0 1.02 0 0 Z " fill="#000000" transform="translate(775,855)"/>
<path d="M0 0 C0 1.98 0 3.96 0 6 C-2.64 6 -5.28 6 -8 6 C-8 4.35 -8 2.7 -8 1 C-1.125 0 -1.125 0 0 0 Z " fill="#000000" transform="translate(567,855)"/>
</svg>
